<svg xmlns:xlink="http://www.w3.org/1999/xlink" xmlns="http://www.w3.org/2000/svg" fill="#000000" stroke-width="0.501" stroke-linejoin="bevel" fill-rule="evenodd" version="1.1" width="75" height="75"><rect id="backgroundrect" width="100%" height="100%" x="0" y="0" fill="none" stroke="none"/><g class="currentLayer"><title>Layer 1</title><g fill="#00a26c" stroke="black" font-family="Times New Roman" font-size="16" transform="translate(-10.810811042785645,-10.810811042785645) scale(1,-1) " id="svg_1" class="selected" fill-opacity="1"><g id="svg_2" fill="#00a26c"><g id="svg_3" fill="#00a26c"><path d="M14.7811619393771,-71.50458719138815 L14.7811619393771,-24.57549318226716 C14.7811619393771,-19.467958193856088 19.030124161956923,-15.32170231886636 24.26417721381231,-15.32170231886636 L72.35844069673377,-15.32170231886636 C77.59249374858916,-15.32170231886636 81.84145597116898,-19.467958193856088 81.84145597116898,-24.57549318226716 L81.84145597116898,-71.50458719138815 C81.84145597116898,-76.61212217979921 77.59249374858916,-80.75837805478893 72.35844069673377,-80.75837805478893 L24.26417721381231,-80.75837805478893 C19.030124161956923,-80.75837805478893 14.7811619393771,-76.61212217979921 14.7811619393771,-71.50458719138815 zM55.9743992434748,-69.50575784473912 L55.9743992434748,-55.519212495423936 L70.30605583628687,-55.519212495423936 L70.30605583628687,-40.56086787823136 L55.9743992434748,-40.56086787823136 L55.9743992434748,-26.574322528916195 L40.64552348012387,-26.574322528916195 L40.64552348012387,-40.56086787823136 L26.311171700364408,-40.56086787823136 L26.311171700364408,-55.519212495423936 L40.64552348012387,-55.519212495423936 L40.64552348012387,-69.50575784473912 L55.9743992434748,-69.50575784473912 z" fill="#00a26c" stroke-width="1.5" stroke-linecap="round" stroke-linejoin="miter" stroke="none" marker-start="none" marker-end="none" stroke-miterlimit="79.8403193612775" id="svg_4"/></g></g></g></g></svg>