<svg xmlns="http://www.w3.org/2000/svg" xmlns:xlink="http://www.w3.org/1999/xlink" fill="#000000" version="1.1" enable-background="new 0 0 100 100" xml:space="preserve" width="100" height="100"><rect id="backgroundrect" width="100%" height="100%" x="0" y="0" fill="none" stroke="none"/><g class="currentLayer"><title>Layer 1</title><g id="svg_1" class="selected" fill-opacity="1" fill="#00a26c"><path fill-rule="evenodd" clip-rule="evenodd" d="M50,5.194c-19.78,0-35.813,16.034-35.813,35.813   c0,9.889,4.398,18.474,10.49,25.324L50,94.806l25.324-28.474c6.09-6.851,10.488-15.436,10.488-25.325   C85.813,21.229,69.779,5.194,50,5.194z M67.906,58.913C63.324,63.496,56.992,66.33,50,66.33c-6.995,0-13.324-2.834-17.908-7.417   C27.51,54.33,24.676,48,24.676,41.007c0-13.987,11.339-25.323,25.325-25.323c13.984,0,25.324,11.336,25.324,25.323   C75.324,48,72.488,54.33,67.906,58.913z" id="svg_2" fill="#00a26c"/><polygon fill-rule="evenodd" clip-rule="evenodd" points="53.561,26.995 46.439,26.995 46.439,37.446 35.988,37.446 35.988,44.568    46.439,44.568 46.439,55.019 53.561,55.019 53.561,44.568 64.012,44.568 64.012,37.446 53.561,37.446  " id="svg_3" fill="#00a26c"/></g></g></svg>