<svg xmlns="http://www.w3.org/2000/svg" xmlns:xlink="http://www.w3.org/1999/xlink" fill="#000000" version="1.1" enable-background="new 0 0 90 90" xml:space="preserve" width="90" height="90"><rect id="backgroundrect" width="100%" height="100%" x="0" y="0" fill="none" stroke="none"/><g class="currentLayer"><title>Layer 1</title><g id="svg_1" class="selected" fill-opacity="1" fill="#00a26c"><polygon points="52.414,6.591 37.049,6.591 37.05,38.088 7.091,38.088 7.091,53.451 37.05,53.451 37.051,83.409 52.414,83.409    52.414,53.45 83.909,53.45 83.909,38.088 52.414,38.088  " id="svg_2" fill="#00a26c"/><path d="M56.255,34.247V2.75H33.209v31.497H3.25v23.045h29.959V87.25h23.046V57.292H87.75V34.247H56.255z M86.214,55.756H56.255   h-1.537v1.536v28.422H34.746V57.292v-1.536h-1.537H4.786V35.783h28.423h1.537v-1.536V4.286h19.972v29.961v1.536h1.537h29.959   V55.756z" id="svg_3" fill="#00a26c"/></g></g></svg>